G04 #@! TF.GenerationSoftware,KiCad,Pcbnew,(5.1.9)-1*
G04 #@! TF.CreationDate,2021-02-19T08:05:19-08:00*
G04 #@! TF.ProjectId,desklamp,6465736b-6c61-46d7-902e-6b696361645f,rev?*
G04 #@! TF.SameCoordinates,Original*
G04 #@! TF.FileFunction,Copper,L1,Top*
G04 #@! TF.FilePolarity,Positive*
%FSLAX46Y46*%
G04 Gerber Fmt 4.6, Leading zero omitted, Abs format (unit mm)*
G04 Created by KiCad (PCBNEW (5.1.9)-1) date 2021-02-19 08:05:19*
%MOMM*%
%LPD*%
G01*
G04 APERTURE LIST*
G04 #@! TA.AperFunction,ComponentPad*
%ADD10C,3.000000*%
G04 #@! TD*
G04 #@! TA.AperFunction,ComponentPad*
%ADD11R,3.000000X3.000000*%
G04 #@! TD*
G04 #@! TA.AperFunction,ComponentPad*
%ADD12C,1.524000*%
G04 #@! TD*
G04 #@! TA.AperFunction,ComponentPad*
%ADD13R,2.400000X2.400000*%
G04 #@! TD*
G04 #@! TA.AperFunction,ComponentPad*
%ADD14C,2.400000*%
G04 #@! TD*
G04 #@! TA.AperFunction,ComponentPad*
%ADD15C,1.600000*%
G04 #@! TD*
G04 #@! TA.AperFunction,ComponentPad*
%ADD16O,1.600000X1.600000*%
G04 #@! TD*
G04 #@! TA.AperFunction,ViaPad*
%ADD17C,0.800000*%
G04 #@! TD*
G04 #@! TA.AperFunction,Conductor*
%ADD18C,2.500000*%
G04 #@! TD*
G04 #@! TA.AperFunction,Conductor*
%ADD19C,0.250000*%
G04 #@! TD*
G04 APERTURE END LIST*
D10*
X200660000Y-123190000D03*
X195580000Y-123190000D03*
D11*
X190500000Y-123190000D03*
X173990000Y-123190000D03*
D10*
X179070000Y-123190000D03*
X184150000Y-123190000D03*
X167640000Y-123190000D03*
X162560000Y-123190000D03*
D11*
X157480000Y-123190000D03*
X140970000Y-123190000D03*
D10*
X146050000Y-123190000D03*
X151130000Y-123190000D03*
D12*
X171450000Y-115570000D03*
X173990000Y-115570000D03*
X176530000Y-115570000D03*
X179070000Y-115570000D03*
X181610000Y-115570000D03*
X184150000Y-115570000D03*
X186690000Y-115570000D03*
X189230000Y-115570000D03*
X191770000Y-115570000D03*
X194310000Y-115570000D03*
X196850000Y-115570000D03*
X199390000Y-115570000D03*
X201930000Y-115570000D03*
X204470000Y-115570000D03*
X204470000Y-113030000D03*
X204470000Y-110490000D03*
X204470000Y-107950000D03*
X204470000Y-105410000D03*
X204470000Y-102870000D03*
X204470000Y-100330000D03*
X201930000Y-100330000D03*
X199390000Y-100330000D03*
X196850000Y-100330000D03*
X194310000Y-100330000D03*
X191770000Y-100330000D03*
X189230000Y-100330000D03*
X186690000Y-100330000D03*
X184150000Y-100330000D03*
X181610000Y-100330000D03*
X179070000Y-100330000D03*
X176530000Y-100330000D03*
X173990000Y-100330000D03*
X171450000Y-100330000D03*
D13*
X142240000Y-109220000D03*
D14*
X147240000Y-109220000D03*
D15*
X156210000Y-106680000D03*
D16*
X166370000Y-106680000D03*
D11*
X146050000Y-97790000D03*
D10*
X140970000Y-97790000D03*
D11*
X133350000Y-105410000D03*
D10*
X133350000Y-110490000D03*
X133350000Y-115570000D03*
D17*
X144780000Y-119380000D03*
X177800000Y-120650000D03*
D18*
X140970000Y-107950000D02*
X142240000Y-109220000D01*
X140970000Y-97790000D02*
X140970000Y-107950000D01*
X139700000Y-109220000D02*
X133350000Y-115570000D01*
X142240000Y-109220000D02*
X139700000Y-109220000D01*
D19*
X142240000Y-119380000D02*
X146050000Y-123190000D01*
X142240000Y-109220000D02*
X142240000Y-119380000D01*
X140970000Y-124940000D02*
X141760000Y-125730000D01*
X140970000Y-123190000D02*
X140970000Y-124940000D01*
X189710000Y-125730000D02*
X141760000Y-125730000D01*
X190500000Y-124940000D02*
X189710000Y-125730000D01*
X190500000Y-123190000D02*
X190500000Y-124940000D01*
X157480000Y-123190000D02*
X157480000Y-125730000D01*
X173990000Y-123190000D02*
X173990000Y-125730000D01*
D18*
X146050000Y-108030000D02*
X147240000Y-109220000D01*
X146050000Y-97790000D02*
X146050000Y-108030000D01*
X147240000Y-109220000D02*
X147240000Y-109220000D01*
D19*
X148439999Y-110419999D02*
X148439999Y-115720001D01*
X147240000Y-109220000D02*
X148439999Y-110419999D01*
X148439999Y-115720001D02*
X144780000Y-119380000D01*
X144780000Y-119380000D02*
X144780000Y-119380000D01*
X173990000Y-123190000D02*
X175260000Y-123190000D01*
X175260000Y-123190000D02*
X177800000Y-120650000D01*
X177800000Y-120650000D02*
X177800000Y-120650000D01*
X187960000Y-106680000D02*
X194310000Y-100330000D01*
X166370000Y-106680000D02*
X187960000Y-106680000D01*
X151130000Y-123190000D02*
X160020000Y-114300000D01*
X160020000Y-114300000D02*
X180340000Y-114300000D01*
X180340000Y-114300000D02*
X181610000Y-115570000D01*
X180340000Y-119380000D02*
X184150000Y-115570000D01*
X171450000Y-119380000D02*
X180340000Y-119380000D01*
X167640000Y-123190000D02*
X171450000Y-119380000D01*
X186690000Y-120650000D02*
X184150000Y-123190000D01*
X186690000Y-115570000D02*
X186690000Y-120650000D01*
X189230000Y-115570000D02*
X193040000Y-119380000D01*
X196850000Y-119380000D02*
X200660000Y-123190000D01*
X193040000Y-119380000D02*
X196850000Y-119380000D01*
M02*
