G04 #@! TF.GenerationSoftware,KiCad,Pcbnew,(5.1.9)-1*
G04 #@! TF.CreationDate,2021-02-19T15:38:56-08:00*
G04 #@! TF.ProjectId,desklamp,6465736b-6c61-46d7-902e-6b696361645f,rev?*
G04 #@! TF.SameCoordinates,Original*
G04 #@! TF.FileFunction,Legend,Top*
G04 #@! TF.FilePolarity,Positive*
%FSLAX46Y46*%
G04 Gerber Fmt 4.6, Leading zero omitted, Abs format (unit mm)*
G04 Created by KiCad (PCBNEW (5.1.9)-1) date 2021-02-19 15:38:56*
%MOMM*%
%LPD*%
G01*
G04 APERTURE LIST*
%ADD10C,0.120000*%
%ADD11C,0.150000*%
G04 APERTURE END LIST*
D10*
X151130000Y-78740000D02*
X151130000Y-88900000D01*
X158750000Y-78740000D02*
X151130000Y-78740000D01*
X158750000Y-88900000D02*
X158750000Y-78740000D01*
X151130000Y-88900000D02*
X158750000Y-88900000D01*
X152400000Y-88900000D02*
X152400000Y-78740000D01*
X164710000Y-95132082D02*
X165960000Y-95132082D01*
X165335000Y-95757082D02*
X165335000Y-94507082D01*
X168593000Y-82579000D02*
X169227000Y-82579000D01*
X168153000Y-82619000D02*
X169667000Y-82619000D01*
X167882000Y-82659000D02*
X169938000Y-82659000D01*
X167669000Y-82699000D02*
X170151000Y-82699000D01*
X167488000Y-82739000D02*
X170332000Y-82739000D01*
X167327000Y-82779000D02*
X170493000Y-82779000D01*
X167182000Y-82819000D02*
X170638000Y-82819000D01*
X167049000Y-82859000D02*
X170771000Y-82859000D01*
X166926000Y-82899000D02*
X170894000Y-82899000D01*
X166810000Y-82939000D02*
X171010000Y-82939000D01*
X166701000Y-82979000D02*
X171119000Y-82979000D01*
X166598000Y-83019000D02*
X171222000Y-83019000D01*
X166500000Y-83059000D02*
X171320000Y-83059000D01*
X166406000Y-83099000D02*
X171414000Y-83099000D01*
X166316000Y-83139000D02*
X171504000Y-83139000D01*
X166229000Y-83179000D02*
X171591000Y-83179000D01*
X166146000Y-83219000D02*
X171674000Y-83219000D01*
X166066000Y-83259000D02*
X171754000Y-83259000D01*
X165989000Y-83299000D02*
X171831000Y-83299000D01*
X165914000Y-83339000D02*
X171906000Y-83339000D01*
X165841000Y-83379000D02*
X171979000Y-83379000D01*
X165770000Y-83419000D02*
X172050000Y-83419000D01*
X165702000Y-83459000D02*
X172118000Y-83459000D01*
X165635000Y-83499000D02*
X172185000Y-83499000D01*
X165571000Y-83539000D02*
X172249000Y-83539000D01*
X165508000Y-83579000D02*
X172312000Y-83579000D01*
X165446000Y-83619000D02*
X172374000Y-83619000D01*
X165386000Y-83659000D02*
X172434000Y-83659000D01*
X165327000Y-83699000D02*
X172493000Y-83699000D01*
X165270000Y-83739000D02*
X172550000Y-83739000D01*
X165214000Y-83779000D02*
X172606000Y-83779000D01*
X165160000Y-83819000D02*
X172660000Y-83819000D01*
X165106000Y-83859000D02*
X172714000Y-83859000D01*
X165054000Y-83899000D02*
X172766000Y-83899000D01*
X165003000Y-83939000D02*
X172817000Y-83939000D01*
X164953000Y-83979000D02*
X172867000Y-83979000D01*
X164903000Y-84019000D02*
X172917000Y-84019000D01*
X164855000Y-84059000D02*
X172965000Y-84059000D01*
X164808000Y-84099000D02*
X173012000Y-84099000D01*
X164762000Y-84139000D02*
X173058000Y-84139000D01*
X164716000Y-84179000D02*
X173104000Y-84179000D01*
X164672000Y-84219000D02*
X173148000Y-84219000D01*
X164628000Y-84259000D02*
X173192000Y-84259000D01*
X164585000Y-84299000D02*
X173235000Y-84299000D01*
X164543000Y-84339000D02*
X173277000Y-84339000D01*
X164502000Y-84379000D02*
X173318000Y-84379000D01*
X164461000Y-84419000D02*
X173359000Y-84419000D01*
X164421000Y-84459000D02*
X173399000Y-84459000D01*
X164382000Y-84499000D02*
X173438000Y-84499000D01*
X164343000Y-84539000D02*
X173477000Y-84539000D01*
X164305000Y-84579000D02*
X173515000Y-84579000D01*
X164268000Y-84619000D02*
X173552000Y-84619000D01*
X164232000Y-84659000D02*
X173588000Y-84659000D01*
X164196000Y-84699000D02*
X173624000Y-84699000D01*
X164160000Y-84739000D02*
X173660000Y-84739000D01*
X164125000Y-84779000D02*
X173695000Y-84779000D01*
X164091000Y-84819000D02*
X173729000Y-84819000D01*
X164058000Y-84859000D02*
X173762000Y-84859000D01*
X164025000Y-84899000D02*
X173795000Y-84899000D01*
X163992000Y-84939000D02*
X173828000Y-84939000D01*
X163960000Y-84979000D02*
X173860000Y-84979000D01*
X170350000Y-85019000D02*
X173892000Y-85019000D01*
X163928000Y-85019000D02*
X167470000Y-85019000D01*
X170350000Y-85059000D02*
X173922000Y-85059000D01*
X163898000Y-85059000D02*
X167470000Y-85059000D01*
X170350000Y-85099000D02*
X173953000Y-85099000D01*
X163867000Y-85099000D02*
X167470000Y-85099000D01*
X170350000Y-85139000D02*
X173983000Y-85139000D01*
X163837000Y-85139000D02*
X167470000Y-85139000D01*
X170350000Y-85179000D02*
X174012000Y-85179000D01*
X163808000Y-85179000D02*
X167470000Y-85179000D01*
X170350000Y-85219000D02*
X174041000Y-85219000D01*
X163779000Y-85219000D02*
X167470000Y-85219000D01*
X170350000Y-85259000D02*
X174070000Y-85259000D01*
X163750000Y-85259000D02*
X167470000Y-85259000D01*
X170350000Y-85299000D02*
X174098000Y-85299000D01*
X163722000Y-85299000D02*
X167470000Y-85299000D01*
X170350000Y-85339000D02*
X174126000Y-85339000D01*
X163694000Y-85339000D02*
X167470000Y-85339000D01*
X170350000Y-85379000D02*
X174153000Y-85379000D01*
X163667000Y-85379000D02*
X167470000Y-85379000D01*
X170350000Y-85419000D02*
X174180000Y-85419000D01*
X163640000Y-85419000D02*
X167470000Y-85419000D01*
X170350000Y-85459000D02*
X174206000Y-85459000D01*
X163614000Y-85459000D02*
X167470000Y-85459000D01*
X170350000Y-85499000D02*
X174232000Y-85499000D01*
X163588000Y-85499000D02*
X167470000Y-85499000D01*
X170350000Y-85539000D02*
X174257000Y-85539000D01*
X163563000Y-85539000D02*
X167470000Y-85539000D01*
X170350000Y-85579000D02*
X174282000Y-85579000D01*
X163538000Y-85579000D02*
X167470000Y-85579000D01*
X170350000Y-85619000D02*
X174307000Y-85619000D01*
X163513000Y-85619000D02*
X167470000Y-85619000D01*
X170350000Y-85659000D02*
X174331000Y-85659000D01*
X163489000Y-85659000D02*
X167470000Y-85659000D01*
X170350000Y-85699000D02*
X174355000Y-85699000D01*
X163465000Y-85699000D02*
X167470000Y-85699000D01*
X170350000Y-85739000D02*
X174378000Y-85739000D01*
X163442000Y-85739000D02*
X167470000Y-85739000D01*
X170350000Y-85779000D02*
X174401000Y-85779000D01*
X163419000Y-85779000D02*
X167470000Y-85779000D01*
X170350000Y-85819000D02*
X174424000Y-85819000D01*
X163396000Y-85819000D02*
X167470000Y-85819000D01*
X170350000Y-85859000D02*
X174446000Y-85859000D01*
X163374000Y-85859000D02*
X167470000Y-85859000D01*
X170350000Y-85899000D02*
X174468000Y-85899000D01*
X163352000Y-85899000D02*
X167470000Y-85899000D01*
X170350000Y-85939000D02*
X174490000Y-85939000D01*
X163330000Y-85939000D02*
X167470000Y-85939000D01*
X170350000Y-85979000D02*
X174511000Y-85979000D01*
X163309000Y-85979000D02*
X167470000Y-85979000D01*
X170350000Y-86019000D02*
X174532000Y-86019000D01*
X163288000Y-86019000D02*
X167470000Y-86019000D01*
X170350000Y-86059000D02*
X174552000Y-86059000D01*
X163268000Y-86059000D02*
X167470000Y-86059000D01*
X170350000Y-86099000D02*
X174572000Y-86099000D01*
X163248000Y-86099000D02*
X167470000Y-86099000D01*
X170350000Y-86139000D02*
X174592000Y-86139000D01*
X163228000Y-86139000D02*
X167470000Y-86139000D01*
X170350000Y-86179000D02*
X174612000Y-86179000D01*
X163208000Y-86179000D02*
X167470000Y-86179000D01*
X170350000Y-86219000D02*
X174631000Y-86219000D01*
X163189000Y-86219000D02*
X167470000Y-86219000D01*
X170350000Y-86259000D02*
X174649000Y-86259000D01*
X163171000Y-86259000D02*
X167470000Y-86259000D01*
X170350000Y-86299000D02*
X174668000Y-86299000D01*
X163152000Y-86299000D02*
X167470000Y-86299000D01*
X170350000Y-86339000D02*
X174686000Y-86339000D01*
X163134000Y-86339000D02*
X167470000Y-86339000D01*
X170350000Y-86379000D02*
X174703000Y-86379000D01*
X163117000Y-86379000D02*
X167470000Y-86379000D01*
X170350000Y-86419000D02*
X174721000Y-86419000D01*
X163099000Y-86419000D02*
X167470000Y-86419000D01*
X170350000Y-86459000D02*
X174738000Y-86459000D01*
X163082000Y-86459000D02*
X167470000Y-86459000D01*
X170350000Y-86499000D02*
X174755000Y-86499000D01*
X163065000Y-86499000D02*
X167470000Y-86499000D01*
X170350000Y-86539000D02*
X174771000Y-86539000D01*
X163049000Y-86539000D02*
X167470000Y-86539000D01*
X170350000Y-86579000D02*
X174787000Y-86579000D01*
X163033000Y-86579000D02*
X167470000Y-86579000D01*
X170350000Y-86619000D02*
X174803000Y-86619000D01*
X163017000Y-86619000D02*
X167470000Y-86619000D01*
X170350000Y-86659000D02*
X174818000Y-86659000D01*
X163002000Y-86659000D02*
X167470000Y-86659000D01*
X170350000Y-86699000D02*
X174834000Y-86699000D01*
X162986000Y-86699000D02*
X167470000Y-86699000D01*
X170350000Y-86739000D02*
X174849000Y-86739000D01*
X162971000Y-86739000D02*
X167470000Y-86739000D01*
X170350000Y-86779000D02*
X174863000Y-86779000D01*
X162957000Y-86779000D02*
X167470000Y-86779000D01*
X170350000Y-86819000D02*
X174877000Y-86819000D01*
X162943000Y-86819000D02*
X167470000Y-86819000D01*
X170350000Y-86859000D02*
X174891000Y-86859000D01*
X162929000Y-86859000D02*
X167470000Y-86859000D01*
X170350000Y-86899000D02*
X174905000Y-86899000D01*
X162915000Y-86899000D02*
X167470000Y-86899000D01*
X170350000Y-86939000D02*
X174918000Y-86939000D01*
X162902000Y-86939000D02*
X167470000Y-86939000D01*
X170350000Y-86979000D02*
X174931000Y-86979000D01*
X162889000Y-86979000D02*
X167470000Y-86979000D01*
X170350000Y-87019000D02*
X174944000Y-87019000D01*
X162876000Y-87019000D02*
X167470000Y-87019000D01*
X170350000Y-87059000D02*
X174957000Y-87059000D01*
X162863000Y-87059000D02*
X167470000Y-87059000D01*
X170350000Y-87099000D02*
X174969000Y-87099000D01*
X162851000Y-87099000D02*
X167470000Y-87099000D01*
X170350000Y-87139000D02*
X174981000Y-87139000D01*
X162839000Y-87139000D02*
X167470000Y-87139000D01*
X170350000Y-87179000D02*
X174993000Y-87179000D01*
X162827000Y-87179000D02*
X167470000Y-87179000D01*
X170350000Y-87219000D02*
X175004000Y-87219000D01*
X162816000Y-87219000D02*
X167470000Y-87219000D01*
X170350000Y-87259000D02*
X175015000Y-87259000D01*
X162805000Y-87259000D02*
X167470000Y-87259000D01*
X170350000Y-87299000D02*
X175026000Y-87299000D01*
X162794000Y-87299000D02*
X167470000Y-87299000D01*
X170350000Y-87339000D02*
X175036000Y-87339000D01*
X162784000Y-87339000D02*
X167470000Y-87339000D01*
X170350000Y-87379000D02*
X175047000Y-87379000D01*
X162773000Y-87379000D02*
X167470000Y-87379000D01*
X170350000Y-87419000D02*
X175056000Y-87419000D01*
X162764000Y-87419000D02*
X167470000Y-87419000D01*
X170350000Y-87459000D02*
X175066000Y-87459000D01*
X162754000Y-87459000D02*
X167470000Y-87459000D01*
X170350000Y-87499000D02*
X175076000Y-87499000D01*
X162744000Y-87499000D02*
X167470000Y-87499000D01*
X170350000Y-87539000D02*
X175085000Y-87539000D01*
X162735000Y-87539000D02*
X167470000Y-87539000D01*
X170350000Y-87579000D02*
X175094000Y-87579000D01*
X162726000Y-87579000D02*
X167470000Y-87579000D01*
X170350000Y-87619000D02*
X175102000Y-87619000D01*
X162718000Y-87619000D02*
X167470000Y-87619000D01*
X170350000Y-87659000D02*
X175111000Y-87659000D01*
X162709000Y-87659000D02*
X167470000Y-87659000D01*
X170350000Y-87699000D02*
X175119000Y-87699000D01*
X162701000Y-87699000D02*
X167470000Y-87699000D01*
X170350000Y-87739000D02*
X175126000Y-87739000D01*
X162694000Y-87739000D02*
X167470000Y-87739000D01*
X170350000Y-87779000D02*
X175134000Y-87779000D01*
X162686000Y-87779000D02*
X167470000Y-87779000D01*
X170350000Y-87819000D02*
X175141000Y-87819000D01*
X162679000Y-87819000D02*
X167470000Y-87819000D01*
X170350000Y-87859000D02*
X175148000Y-87859000D01*
X162672000Y-87859000D02*
X167470000Y-87859000D01*
X162665000Y-87899000D02*
X175155000Y-87899000D01*
X162658000Y-87939000D02*
X175162000Y-87939000D01*
X162652000Y-87979000D02*
X175168000Y-87979000D01*
X162646000Y-88019000D02*
X175174000Y-88019000D01*
X162641000Y-88059000D02*
X175179000Y-88059000D01*
X162635000Y-88099000D02*
X175185000Y-88099000D01*
X162630000Y-88139000D02*
X175190000Y-88139000D01*
X162625000Y-88179000D02*
X175195000Y-88179000D01*
X162620000Y-88219000D02*
X175200000Y-88219000D01*
X162616000Y-88260000D02*
X175204000Y-88260000D01*
X162612000Y-88300000D02*
X175208000Y-88300000D01*
X162608000Y-88340000D02*
X175212000Y-88340000D01*
X162604000Y-88380000D02*
X175216000Y-88380000D01*
X162601000Y-88420000D02*
X175219000Y-88420000D01*
X162598000Y-88460000D02*
X175222000Y-88460000D01*
X162595000Y-88500000D02*
X175225000Y-88500000D01*
X162592000Y-88540000D02*
X175228000Y-88540000D01*
X162590000Y-88580000D02*
X175230000Y-88580000D01*
X162588000Y-88620000D02*
X175232000Y-88620000D01*
X162586000Y-88660000D02*
X175234000Y-88660000D01*
X162584000Y-88700000D02*
X175236000Y-88700000D01*
X162583000Y-88740000D02*
X175237000Y-88740000D01*
X162582000Y-88780000D02*
X175238000Y-88780000D01*
X162581000Y-88820000D02*
X175239000Y-88820000D01*
X162580000Y-88860000D02*
X175240000Y-88860000D01*
X162580000Y-88900000D02*
X175240000Y-88900000D01*
X162580000Y-88940000D02*
X175240000Y-88940000D01*
X175280000Y-88940000D02*
G75*
G03*
X175280000Y-88940000I-6370000J0D01*
G01*
X175260000Y-69850000D02*
X160020000Y-69850000D01*
X175260000Y-77470000D02*
X160020000Y-77470000D01*
X175260000Y-71120000D02*
X160020000Y-71120000D01*
X160020000Y-69850000D02*
X160020000Y-77470000D01*
X175260000Y-69850000D02*
X175260000Y-77470000D01*
X176530000Y-114300000D02*
X191770000Y-114300000D01*
X176530000Y-106680000D02*
X191770000Y-106680000D01*
X176530000Y-113030000D02*
X191770000Y-113030000D01*
X191770000Y-114300000D02*
X191770000Y-106680000D01*
X176530000Y-114300000D02*
X176530000Y-106680000D01*
X179070000Y-89130000D02*
X179070000Y-88360000D01*
X179070000Y-81050000D02*
X179070000Y-81820000D01*
X180440000Y-88360000D02*
X180440000Y-81820000D01*
X177700000Y-88360000D02*
X180440000Y-88360000D01*
X177700000Y-81820000D02*
X177700000Y-88360000D01*
X180440000Y-81820000D02*
X177700000Y-81820000D01*
X151130000Y-90170000D02*
X151130000Y-105410000D01*
X158750000Y-90170000D02*
X158750000Y-105410000D01*
X152400000Y-90170000D02*
X152400000Y-105410000D01*
X151130000Y-105410000D02*
X158750000Y-105410000D01*
X151130000Y-90170000D02*
X158750000Y-90170000D01*
X193040000Y-114300000D02*
X193040000Y-106680000D01*
X208280000Y-114300000D02*
X208280000Y-106680000D01*
X193040000Y-113030000D02*
X208280000Y-113030000D01*
X193040000Y-106680000D02*
X208280000Y-106680000D01*
X193040000Y-114300000D02*
X208280000Y-114300000D01*
X160020000Y-114300000D02*
X160020000Y-106680000D01*
X175260000Y-114300000D02*
X175260000Y-106680000D01*
X160020000Y-113030000D02*
X175260000Y-113030000D01*
X160020000Y-106680000D02*
X175260000Y-106680000D01*
X160020000Y-114300000D02*
X175260000Y-114300000D01*
D11*
X160742380Y-86693333D02*
X161456666Y-86693333D01*
X161599523Y-86740952D01*
X161694761Y-86836190D01*
X161742380Y-86979047D01*
X161742380Y-87074285D01*
X161742380Y-85693333D02*
X161742380Y-86264761D01*
X161742380Y-85979047D02*
X160742380Y-85979047D01*
X160885238Y-86074285D01*
X160980476Y-86169523D01*
X161028095Y-86264761D01*
X161742380Y-84526190D02*
X160742380Y-84526190D01*
X160742380Y-84145238D01*
X160790000Y-84050000D01*
X160837619Y-84002380D01*
X160932857Y-83954761D01*
X161075714Y-83954761D01*
X161170952Y-84002380D01*
X161218571Y-84050000D01*
X161266190Y-84145238D01*
X161266190Y-84526190D01*
X161742380Y-83383333D02*
X161694761Y-83478571D01*
X161647142Y-83526190D01*
X161551904Y-83573809D01*
X161266190Y-83573809D01*
X161170952Y-83526190D01*
X161123333Y-83478571D01*
X161075714Y-83383333D01*
X161075714Y-83240476D01*
X161123333Y-83145238D01*
X161170952Y-83097619D01*
X161266190Y-83050000D01*
X161551904Y-83050000D01*
X161647142Y-83097619D01*
X161694761Y-83145238D01*
X161742380Y-83240476D01*
X161742380Y-83383333D01*
X161075714Y-82716666D02*
X161742380Y-82526190D01*
X161266190Y-82335714D01*
X161742380Y-82145238D01*
X161075714Y-81954761D01*
X161694761Y-81192857D02*
X161742380Y-81288095D01*
X161742380Y-81478571D01*
X161694761Y-81573809D01*
X161599523Y-81621428D01*
X161218571Y-81621428D01*
X161123333Y-81573809D01*
X161075714Y-81478571D01*
X161075714Y-81288095D01*
X161123333Y-81192857D01*
X161218571Y-81145238D01*
X161313809Y-81145238D01*
X161409047Y-81621428D01*
X161742380Y-80716666D02*
X161075714Y-80716666D01*
X161266190Y-80716666D02*
X161170952Y-80669047D01*
X161123333Y-80621428D01*
X161075714Y-80526190D01*
X161075714Y-80430952D01*
X159520000Y-82041904D02*
X159472380Y-82137142D01*
X159472380Y-82280000D01*
X159520000Y-82422857D01*
X159615238Y-82518095D01*
X159710476Y-82565714D01*
X159900952Y-82613333D01*
X160043809Y-82613333D01*
X160234285Y-82565714D01*
X160329523Y-82518095D01*
X160424761Y-82422857D01*
X160472380Y-82280000D01*
X160472380Y-82184761D01*
X160424761Y-82041904D01*
X160377142Y-81994285D01*
X160043809Y-81994285D01*
X160043809Y-82184761D01*
X160472380Y-81565714D02*
X159472380Y-81565714D01*
X160472380Y-80994285D01*
X159472380Y-80994285D01*
X160472380Y-80518095D02*
X159472380Y-80518095D01*
X159472380Y-80280000D01*
X159520000Y-80137142D01*
X159615238Y-80041904D01*
X159710476Y-79994285D01*
X159900952Y-79946666D01*
X160043809Y-79946666D01*
X160234285Y-79994285D01*
X160329523Y-80041904D01*
X160424761Y-80137142D01*
X160472380Y-80280000D01*
X160472380Y-80518095D01*
X159472380Y-86550476D02*
X159472380Y-87026666D01*
X159948571Y-87074285D01*
X159900952Y-87026666D01*
X159853333Y-86931428D01*
X159853333Y-86693333D01*
X159900952Y-86598095D01*
X159948571Y-86550476D01*
X160043809Y-86502857D01*
X160281904Y-86502857D01*
X160377142Y-86550476D01*
X160424761Y-86598095D01*
X160472380Y-86693333D01*
X160472380Y-86931428D01*
X160424761Y-87026666D01*
X160377142Y-87074285D01*
X159472380Y-86217142D02*
X160472380Y-85883809D01*
X159472380Y-85550476D01*
X168743333Y-98147142D02*
X168695714Y-98194761D01*
X168552857Y-98242380D01*
X168457619Y-98242380D01*
X168314761Y-98194761D01*
X168219523Y-98099523D01*
X168171904Y-98004285D01*
X168124285Y-97813809D01*
X168124285Y-97670952D01*
X168171904Y-97480476D01*
X168219523Y-97385238D01*
X168314761Y-97290000D01*
X168457619Y-97242380D01*
X168552857Y-97242380D01*
X168695714Y-97290000D01*
X168743333Y-97337619D01*
X169695714Y-98242380D02*
X169124285Y-98242380D01*
X169410000Y-98242380D02*
X169410000Y-97242380D01*
X169314761Y-97385238D01*
X169219523Y-97480476D01*
X169124285Y-97528095D01*
X166790952Y-96305714D02*
X166790952Y-96972380D01*
X166552857Y-95924761D02*
X166314761Y-96639047D01*
X166933809Y-96639047D01*
X167219523Y-95972380D02*
X167886190Y-95972380D01*
X167457619Y-96972380D01*
X168457619Y-95972380D02*
X168552857Y-95972380D01*
X168648095Y-96020000D01*
X168695714Y-96067619D01*
X168743333Y-96162857D01*
X168790952Y-96353333D01*
X168790952Y-96591428D01*
X168743333Y-96781904D01*
X168695714Y-96877142D01*
X168648095Y-96924761D01*
X168552857Y-96972380D01*
X168457619Y-96972380D01*
X168362380Y-96924761D01*
X168314761Y-96877142D01*
X168267142Y-96781904D01*
X168219523Y-96591428D01*
X168219523Y-96353333D01*
X168267142Y-96162857D01*
X168314761Y-96067619D01*
X168362380Y-96020000D01*
X168457619Y-95972380D01*
X169410000Y-95972380D02*
X169505238Y-95972380D01*
X169600476Y-96020000D01*
X169648095Y-96067619D01*
X169695714Y-96162857D01*
X169743333Y-96353333D01*
X169743333Y-96591428D01*
X169695714Y-96781904D01*
X169648095Y-96877142D01*
X169600476Y-96924761D01*
X169505238Y-96972380D01*
X169410000Y-96972380D01*
X169314761Y-96924761D01*
X169267142Y-96877142D01*
X169219523Y-96781904D01*
X169171904Y-96591428D01*
X169171904Y-96353333D01*
X169219523Y-96162857D01*
X169267142Y-96067619D01*
X169314761Y-96020000D01*
X169410000Y-95972380D01*
X170600476Y-96305714D02*
X170600476Y-96972380D01*
X170171904Y-96305714D02*
X170171904Y-96829523D01*
X170219523Y-96924761D01*
X170314761Y-96972380D01*
X170457619Y-96972380D01*
X170552857Y-96924761D01*
X170600476Y-96877142D01*
X171410000Y-96448571D02*
X171076666Y-96448571D01*
X171076666Y-96972380D02*
X171076666Y-95972380D01*
X171552857Y-95972380D01*
X163496666Y-79462380D02*
X163496666Y-80176666D01*
X163449047Y-80319523D01*
X163353809Y-80414761D01*
X163210952Y-80462380D01*
X163115714Y-80462380D01*
X163925238Y-79557619D02*
X163972857Y-79510000D01*
X164068095Y-79462380D01*
X164306190Y-79462380D01*
X164401428Y-79510000D01*
X164449047Y-79557619D01*
X164496666Y-79652857D01*
X164496666Y-79748095D01*
X164449047Y-79890952D01*
X163877619Y-80462380D01*
X164496666Y-80462380D01*
X165957619Y-80462380D02*
X165957619Y-79462380D01*
X166529047Y-80462380D01*
X166529047Y-79462380D01*
X167386190Y-80414761D02*
X167290952Y-80462380D01*
X167100476Y-80462380D01*
X167005238Y-80414761D01*
X166957619Y-80319523D01*
X166957619Y-79938571D01*
X167005238Y-79843333D01*
X167100476Y-79795714D01*
X167290952Y-79795714D01*
X167386190Y-79843333D01*
X167433809Y-79938571D01*
X167433809Y-80033809D01*
X166957619Y-80129047D01*
X168005238Y-80462380D02*
X167910000Y-80414761D01*
X167862380Y-80367142D01*
X167814761Y-80271904D01*
X167814761Y-79986190D01*
X167862380Y-79890952D01*
X167910000Y-79843333D01*
X168005238Y-79795714D01*
X168148095Y-79795714D01*
X168243333Y-79843333D01*
X168290952Y-79890952D01*
X168338571Y-79986190D01*
X168338571Y-80271904D01*
X168290952Y-80367142D01*
X168243333Y-80414761D01*
X168148095Y-80462380D01*
X168005238Y-80462380D01*
X168767142Y-79795714D02*
X168767142Y-80795714D01*
X168767142Y-79843333D02*
X168862380Y-79795714D01*
X169052857Y-79795714D01*
X169148095Y-79843333D01*
X169195714Y-79890952D01*
X169243333Y-79986190D01*
X169243333Y-80271904D01*
X169195714Y-80367142D01*
X169148095Y-80414761D01*
X169052857Y-80462380D01*
X168862380Y-80462380D01*
X168767142Y-80414761D01*
X169671904Y-80462380D02*
X169671904Y-79795714D01*
X169671904Y-79462380D02*
X169624285Y-79510000D01*
X169671904Y-79557619D01*
X169719523Y-79510000D01*
X169671904Y-79462380D01*
X169671904Y-79557619D01*
X170052857Y-80462380D02*
X170576666Y-79795714D01*
X170052857Y-79795714D02*
X170576666Y-80462380D01*
X171338571Y-80414761D02*
X171243333Y-80462380D01*
X171052857Y-80462380D01*
X170957619Y-80414761D01*
X170910000Y-80319523D01*
X170910000Y-79938571D01*
X170957619Y-79843333D01*
X171052857Y-79795714D01*
X171243333Y-79795714D01*
X171338571Y-79843333D01*
X171386190Y-79938571D01*
X171386190Y-80033809D01*
X170910000Y-80129047D01*
X171957619Y-80462380D02*
X171862380Y-80414761D01*
X171814761Y-80319523D01*
X171814761Y-79462380D01*
X171958095Y-78240000D02*
X171862857Y-78192380D01*
X171720000Y-78192380D01*
X171577142Y-78240000D01*
X171481904Y-78335238D01*
X171434285Y-78430476D01*
X171386666Y-78620952D01*
X171386666Y-78763809D01*
X171434285Y-78954285D01*
X171481904Y-79049523D01*
X171577142Y-79144761D01*
X171720000Y-79192380D01*
X171815238Y-79192380D01*
X171958095Y-79144761D01*
X172005714Y-79097142D01*
X172005714Y-78763809D01*
X171815238Y-78763809D01*
X172434285Y-79192380D02*
X172434285Y-78192380D01*
X173005714Y-79192380D01*
X173005714Y-78192380D01*
X173481904Y-79192380D02*
X173481904Y-78192380D01*
X173720000Y-78192380D01*
X173862857Y-78240000D01*
X173958095Y-78335238D01*
X174005714Y-78430476D01*
X174053333Y-78620952D01*
X174053333Y-78763809D01*
X174005714Y-78954285D01*
X173958095Y-79049523D01*
X173862857Y-79144761D01*
X173720000Y-79192380D01*
X173481904Y-79192380D01*
X165949523Y-79192380D02*
X165949523Y-78192380D01*
X166187619Y-78192380D01*
X166330476Y-78240000D01*
X166425714Y-78335238D01*
X166473333Y-78430476D01*
X166520952Y-78620952D01*
X166520952Y-78763809D01*
X166473333Y-78954285D01*
X166425714Y-79049523D01*
X166330476Y-79144761D01*
X166187619Y-79192380D01*
X165949523Y-79192380D01*
X167140000Y-78192380D02*
X167330476Y-78192380D01*
X167425714Y-78240000D01*
X167520952Y-78335238D01*
X167568571Y-78525714D01*
X167568571Y-78859047D01*
X167520952Y-79049523D01*
X167425714Y-79144761D01*
X167330476Y-79192380D01*
X167140000Y-79192380D01*
X167044761Y-79144761D01*
X166949523Y-79049523D01*
X166901904Y-78859047D01*
X166901904Y-78525714D01*
X166949523Y-78335238D01*
X167044761Y-78240000D01*
X167140000Y-78192380D01*
X167997142Y-78192380D02*
X167997142Y-79001904D01*
X168044761Y-79097142D01*
X168092380Y-79144761D01*
X168187619Y-79192380D01*
X168378095Y-79192380D01*
X168473333Y-79144761D01*
X168520952Y-79097142D01*
X168568571Y-79001904D01*
X168568571Y-78192380D01*
X168901904Y-78192380D02*
X169473333Y-78192380D01*
X169187619Y-79192380D02*
X169187619Y-78192380D01*
X162369523Y-78192380D02*
X161893333Y-78192380D01*
X161845714Y-78668571D01*
X161893333Y-78620952D01*
X161988571Y-78573333D01*
X162226666Y-78573333D01*
X162321904Y-78620952D01*
X162369523Y-78668571D01*
X162417142Y-78763809D01*
X162417142Y-79001904D01*
X162369523Y-79097142D01*
X162321904Y-79144761D01*
X162226666Y-79192380D01*
X161988571Y-79192380D01*
X161893333Y-79144761D01*
X161845714Y-79097142D01*
X162702857Y-78192380D02*
X163036190Y-79192380D01*
X163369523Y-78192380D01*
X183554761Y-105862380D02*
X183221428Y-105386190D01*
X182983333Y-105862380D02*
X182983333Y-104862380D01*
X183364285Y-104862380D01*
X183459523Y-104910000D01*
X183507142Y-104957619D01*
X183554761Y-105052857D01*
X183554761Y-105195714D01*
X183507142Y-105290952D01*
X183459523Y-105338571D01*
X183364285Y-105386190D01*
X182983333Y-105386190D01*
X183840476Y-104862380D02*
X184173809Y-105862380D01*
X184507142Y-104862380D01*
X184792857Y-104957619D02*
X184840476Y-104910000D01*
X184935714Y-104862380D01*
X185173809Y-104862380D01*
X185269047Y-104910000D01*
X185316666Y-104957619D01*
X185364285Y-105052857D01*
X185364285Y-105148095D01*
X185316666Y-105290952D01*
X184745238Y-105862380D01*
X185364285Y-105862380D01*
X186317142Y-105862380D02*
X186317142Y-104862380D01*
X186698095Y-104862380D01*
X186793333Y-104910000D01*
X186840952Y-104957619D01*
X186888571Y-105052857D01*
X186888571Y-105195714D01*
X186840952Y-105290952D01*
X186793333Y-105338571D01*
X186698095Y-105386190D01*
X186317142Y-105386190D01*
X187507619Y-104862380D02*
X187698095Y-104862380D01*
X187793333Y-104910000D01*
X187888571Y-105005238D01*
X187936190Y-105195714D01*
X187936190Y-105529047D01*
X187888571Y-105719523D01*
X187793333Y-105814761D01*
X187698095Y-105862380D01*
X187507619Y-105862380D01*
X187412380Y-105814761D01*
X187317142Y-105719523D01*
X187269523Y-105529047D01*
X187269523Y-105195714D01*
X187317142Y-105005238D01*
X187412380Y-104910000D01*
X187507619Y-104862380D01*
X188221904Y-104862380D02*
X188793333Y-104862380D01*
X188507619Y-105862380D02*
X188507619Y-104862380D01*
X189079047Y-104957619D02*
X189126666Y-104910000D01*
X189221904Y-104862380D01*
X189460000Y-104862380D01*
X189555238Y-104910000D01*
X189602857Y-104957619D01*
X189650476Y-105052857D01*
X189650476Y-105148095D01*
X189602857Y-105290952D01*
X189031428Y-105862380D01*
X189650476Y-105862380D01*
X181892380Y-85256666D02*
X181416190Y-85590000D01*
X181892380Y-85828095D02*
X180892380Y-85828095D01*
X180892380Y-85447142D01*
X180940000Y-85351904D01*
X180987619Y-85304285D01*
X181082857Y-85256666D01*
X181225714Y-85256666D01*
X181320952Y-85304285D01*
X181368571Y-85351904D01*
X181416190Y-85447142D01*
X181416190Y-85828095D01*
X181892380Y-84304285D02*
X181892380Y-84875714D01*
X181892380Y-84590000D02*
X180892380Y-84590000D01*
X181035238Y-84685238D01*
X181130476Y-84780476D01*
X181178095Y-84875714D01*
X176485714Y-87423333D02*
X177152380Y-87423333D01*
X176104761Y-87661428D02*
X176819047Y-87899523D01*
X176819047Y-87280476D01*
X176152380Y-86994761D02*
X176152380Y-86328095D01*
X177152380Y-86756666D01*
X176152380Y-85756666D02*
X176152380Y-85661428D01*
X176200000Y-85566190D01*
X176247619Y-85518571D01*
X176342857Y-85470952D01*
X176533333Y-85423333D01*
X176771428Y-85423333D01*
X176961904Y-85470952D01*
X177057142Y-85518571D01*
X177104761Y-85566190D01*
X177152380Y-85661428D01*
X177152380Y-85756666D01*
X177104761Y-85851904D01*
X177057142Y-85899523D01*
X176961904Y-85947142D01*
X176771428Y-85994761D01*
X176533333Y-85994761D01*
X176342857Y-85947142D01*
X176247619Y-85899523D01*
X176200000Y-85851904D01*
X176152380Y-85756666D01*
X177152380Y-84851904D02*
X177104761Y-84947142D01*
X177057142Y-84994761D01*
X176961904Y-85042380D01*
X176676190Y-85042380D01*
X176580952Y-84994761D01*
X176533333Y-84947142D01*
X176485714Y-84851904D01*
X176485714Y-84709047D01*
X176533333Y-84613809D01*
X176580952Y-84566190D01*
X176676190Y-84518571D01*
X176961904Y-84518571D01*
X177057142Y-84566190D01*
X177104761Y-84613809D01*
X177152380Y-84709047D01*
X177152380Y-84851904D01*
X177152380Y-84090000D02*
X176152380Y-84090000D01*
X177152380Y-83661428D02*
X176628571Y-83661428D01*
X176533333Y-83709047D01*
X176485714Y-83804285D01*
X176485714Y-83947142D01*
X176533333Y-84042380D01*
X176580952Y-84090000D01*
X177152380Y-83185238D02*
X176485714Y-83185238D01*
X176580952Y-83185238D02*
X176533333Y-83137619D01*
X176485714Y-83042380D01*
X176485714Y-82899523D01*
X176533333Y-82804285D01*
X176628571Y-82756666D01*
X177152380Y-82756666D01*
X176628571Y-82756666D02*
X176533333Y-82709047D01*
X176485714Y-82613809D01*
X176485714Y-82470952D01*
X176533333Y-82375714D01*
X176628571Y-82328095D01*
X177152380Y-82328095D01*
X160472380Y-98355238D02*
X159996190Y-98688571D01*
X160472380Y-98926666D02*
X159472380Y-98926666D01*
X159472380Y-98545714D01*
X159520000Y-98450476D01*
X159567619Y-98402857D01*
X159662857Y-98355238D01*
X159805714Y-98355238D01*
X159900952Y-98402857D01*
X159948571Y-98450476D01*
X159996190Y-98545714D01*
X159996190Y-98926666D01*
X159472380Y-98069523D02*
X160472380Y-97736190D01*
X159472380Y-97402857D01*
X159472380Y-96879047D02*
X159472380Y-96783809D01*
X159520000Y-96688571D01*
X159567619Y-96640952D01*
X159662857Y-96593333D01*
X159853333Y-96545714D01*
X160091428Y-96545714D01*
X160281904Y-96593333D01*
X160377142Y-96640952D01*
X160424761Y-96688571D01*
X160472380Y-96783809D01*
X160472380Y-96879047D01*
X160424761Y-96974285D01*
X160377142Y-97021904D01*
X160281904Y-97069523D01*
X160091428Y-97117142D01*
X159853333Y-97117142D01*
X159662857Y-97069523D01*
X159567619Y-97021904D01*
X159520000Y-96974285D01*
X159472380Y-96879047D01*
X160472380Y-103242857D02*
X159472380Y-103242857D01*
X159472380Y-102861904D01*
X159520000Y-102766666D01*
X159567619Y-102719047D01*
X159662857Y-102671428D01*
X159805714Y-102671428D01*
X159900952Y-102719047D01*
X159948571Y-102766666D01*
X159996190Y-102861904D01*
X159996190Y-103242857D01*
X159472380Y-102052380D02*
X159472380Y-101861904D01*
X159520000Y-101766666D01*
X159615238Y-101671428D01*
X159805714Y-101623809D01*
X160139047Y-101623809D01*
X160329523Y-101671428D01*
X160424761Y-101766666D01*
X160472380Y-101861904D01*
X160472380Y-102052380D01*
X160424761Y-102147619D01*
X160329523Y-102242857D01*
X160139047Y-102290476D01*
X159805714Y-102290476D01*
X159615238Y-102242857D01*
X159520000Y-102147619D01*
X159472380Y-102052380D01*
X159472380Y-101338095D02*
X159472380Y-100766666D01*
X160472380Y-101052380D02*
X159472380Y-101052380D01*
X159472380Y-100242857D02*
X159472380Y-100147619D01*
X159520000Y-100052380D01*
X159567619Y-100004761D01*
X159662857Y-99957142D01*
X159853333Y-99909523D01*
X160091428Y-99909523D01*
X160281904Y-99957142D01*
X160377142Y-100004761D01*
X160424761Y-100052380D01*
X160472380Y-100147619D01*
X160472380Y-100242857D01*
X160424761Y-100338095D01*
X160377142Y-100385714D01*
X160281904Y-100433333D01*
X160091428Y-100480952D01*
X159853333Y-100480952D01*
X159662857Y-100433333D01*
X159567619Y-100385714D01*
X159520000Y-100338095D01*
X159472380Y-100242857D01*
X200034761Y-105862380D02*
X199701428Y-105386190D01*
X199463333Y-105862380D02*
X199463333Y-104862380D01*
X199844285Y-104862380D01*
X199939523Y-104910000D01*
X199987142Y-104957619D01*
X200034761Y-105052857D01*
X200034761Y-105195714D01*
X199987142Y-105290952D01*
X199939523Y-105338571D01*
X199844285Y-105386190D01*
X199463333Y-105386190D01*
X200320476Y-104862380D02*
X200653809Y-105862380D01*
X200987142Y-104862380D01*
X201225238Y-104862380D02*
X201844285Y-104862380D01*
X201510952Y-105243333D01*
X201653809Y-105243333D01*
X201749047Y-105290952D01*
X201796666Y-105338571D01*
X201844285Y-105433809D01*
X201844285Y-105671904D01*
X201796666Y-105767142D01*
X201749047Y-105814761D01*
X201653809Y-105862380D01*
X201368095Y-105862380D01*
X201272857Y-105814761D01*
X201225238Y-105767142D01*
X202827142Y-105862380D02*
X202827142Y-104862380D01*
X203208095Y-104862380D01*
X203303333Y-104910000D01*
X203350952Y-104957619D01*
X203398571Y-105052857D01*
X203398571Y-105195714D01*
X203350952Y-105290952D01*
X203303333Y-105338571D01*
X203208095Y-105386190D01*
X202827142Y-105386190D01*
X204017619Y-104862380D02*
X204208095Y-104862380D01*
X204303333Y-104910000D01*
X204398571Y-105005238D01*
X204446190Y-105195714D01*
X204446190Y-105529047D01*
X204398571Y-105719523D01*
X204303333Y-105814761D01*
X204208095Y-105862380D01*
X204017619Y-105862380D01*
X203922380Y-105814761D01*
X203827142Y-105719523D01*
X203779523Y-105529047D01*
X203779523Y-105195714D01*
X203827142Y-105005238D01*
X203922380Y-104910000D01*
X204017619Y-104862380D01*
X204731904Y-104862380D02*
X205303333Y-104862380D01*
X205017619Y-105862380D02*
X205017619Y-104862380D01*
X205541428Y-104862380D02*
X206160476Y-104862380D01*
X205827142Y-105243333D01*
X205970000Y-105243333D01*
X206065238Y-105290952D01*
X206112857Y-105338571D01*
X206160476Y-105433809D01*
X206160476Y-105671904D01*
X206112857Y-105767142D01*
X206065238Y-105814761D01*
X205970000Y-105862380D01*
X205684285Y-105862380D01*
X205589047Y-105814761D01*
X205541428Y-105767142D01*
X167014761Y-105862380D02*
X166681428Y-105386190D01*
X166443333Y-105862380D02*
X166443333Y-104862380D01*
X166824285Y-104862380D01*
X166919523Y-104910000D01*
X166967142Y-104957619D01*
X167014761Y-105052857D01*
X167014761Y-105195714D01*
X166967142Y-105290952D01*
X166919523Y-105338571D01*
X166824285Y-105386190D01*
X166443333Y-105386190D01*
X167300476Y-104862380D02*
X167633809Y-105862380D01*
X167967142Y-104862380D01*
X168824285Y-105862380D02*
X168252857Y-105862380D01*
X168538571Y-105862380D02*
X168538571Y-104862380D01*
X168443333Y-105005238D01*
X168348095Y-105100476D01*
X168252857Y-105148095D01*
X169807142Y-105862380D02*
X169807142Y-104862380D01*
X170188095Y-104862380D01*
X170283333Y-104910000D01*
X170330952Y-104957619D01*
X170378571Y-105052857D01*
X170378571Y-105195714D01*
X170330952Y-105290952D01*
X170283333Y-105338571D01*
X170188095Y-105386190D01*
X169807142Y-105386190D01*
X170997619Y-104862380D02*
X171188095Y-104862380D01*
X171283333Y-104910000D01*
X171378571Y-105005238D01*
X171426190Y-105195714D01*
X171426190Y-105529047D01*
X171378571Y-105719523D01*
X171283333Y-105814761D01*
X171188095Y-105862380D01*
X170997619Y-105862380D01*
X170902380Y-105814761D01*
X170807142Y-105719523D01*
X170759523Y-105529047D01*
X170759523Y-105195714D01*
X170807142Y-105005238D01*
X170902380Y-104910000D01*
X170997619Y-104862380D01*
X171711904Y-104862380D02*
X172283333Y-104862380D01*
X171997619Y-105862380D02*
X171997619Y-104862380D01*
X173140476Y-105862380D02*
X172569047Y-105862380D01*
X172854761Y-105862380D02*
X172854761Y-104862380D01*
X172759523Y-105005238D01*
X172664285Y-105100476D01*
X172569047Y-105148095D01*
X189738095Y-89622380D02*
X189738095Y-90431904D01*
X189785714Y-90527142D01*
X189833333Y-90574761D01*
X189928571Y-90622380D01*
X190119047Y-90622380D01*
X190214285Y-90574761D01*
X190261904Y-90527142D01*
X190309523Y-90431904D01*
X190309523Y-89622380D01*
X191309523Y-90622380D02*
X190738095Y-90622380D01*
X191023809Y-90622380D02*
X191023809Y-89622380D01*
X190928571Y-89765238D01*
X190833333Y-89860476D01*
X190738095Y-89908095D01*
X187285714Y-88082380D02*
X187285714Y-87415714D01*
X187285714Y-87082380D02*
X187238095Y-87130000D01*
X187285714Y-87177619D01*
X187333333Y-87130000D01*
X187285714Y-87082380D01*
X187285714Y-87177619D01*
X187619047Y-87415714D02*
X188000000Y-87415714D01*
X187761904Y-87082380D02*
X187761904Y-87939523D01*
X187809523Y-88034761D01*
X187904761Y-88082380D01*
X188000000Y-88082380D01*
X188285714Y-88034761D02*
X188380952Y-88082380D01*
X188571428Y-88082380D01*
X188666666Y-88034761D01*
X188714285Y-87939523D01*
X188714285Y-87891904D01*
X188666666Y-87796666D01*
X188571428Y-87749047D01*
X188428571Y-87749047D01*
X188333333Y-87701428D01*
X188285714Y-87606190D01*
X188285714Y-87558571D01*
X188333333Y-87463333D01*
X188428571Y-87415714D01*
X188571428Y-87415714D01*
X188666666Y-87463333D01*
X189047619Y-87415714D02*
X189285714Y-88082380D01*
X189523809Y-87415714D02*
X189285714Y-88082380D01*
X189190476Y-88320476D01*
X189142857Y-88368095D01*
X189047619Y-88415714D01*
X189666666Y-88177619D02*
X190428571Y-88177619D01*
X190666666Y-88082380D02*
X190666666Y-87082380D01*
X190666666Y-87463333D02*
X190761904Y-87415714D01*
X190952380Y-87415714D01*
X191047619Y-87463333D01*
X191095238Y-87510952D01*
X191142857Y-87606190D01*
X191142857Y-87891904D01*
X191095238Y-87987142D01*
X191047619Y-88034761D01*
X190952380Y-88082380D01*
X190761904Y-88082380D01*
X190666666Y-88034761D01*
X191571428Y-88082380D02*
X191571428Y-87415714D01*
X191571428Y-87082380D02*
X191523809Y-87130000D01*
X191571428Y-87177619D01*
X191619047Y-87130000D01*
X191571428Y-87082380D01*
X191571428Y-87177619D01*
X191904761Y-87415714D02*
X192285714Y-87415714D01*
X192047619Y-87082380D02*
X192047619Y-87939523D01*
X192095238Y-88034761D01*
X192190476Y-88082380D01*
X192285714Y-88082380D01*
X192571428Y-88034761D02*
X192666666Y-88082380D01*
X192857142Y-88082380D01*
X192952380Y-88034761D01*
X193000000Y-87939523D01*
X193000000Y-87891904D01*
X192952380Y-87796666D01*
X192857142Y-87749047D01*
X192714285Y-87749047D01*
X192619047Y-87701428D01*
X192571428Y-87606190D01*
X192571428Y-87558571D01*
X192619047Y-87463333D01*
X192714285Y-87415714D01*
X192857142Y-87415714D01*
X192952380Y-87463333D01*
X193333333Y-87415714D02*
X193571428Y-88082380D01*
X193809523Y-87415714D02*
X193571428Y-88082380D01*
X193476190Y-88320476D01*
X193428571Y-88368095D01*
X193333333Y-88415714D01*
M02*
