M48
; DRILL file {KiCad (5.1.9)-1} date 02/19/21 08:05:22
; FORMAT={-:-/ absolute / inch / decimal}
; #@! TF.CreationDate,2021-02-19T08:05:22-08:00
; #@! TF.GenerationSoftware,Kicad,Pcbnew,(5.1.9)-1
; #@! TF.FileFunction,Plated,1,2,PTH
FMAT,2
INCH
T1C0.0157
T2C0.0300
T3C0.0315
T4C0.0472
T5C0.0598
%
G90
G05
T1
X5.7Y-4.7
X7.0Y-4.75
T2
X6.75Y-3.95
X6.75Y-4.55
X6.85Y-3.95
X6.85Y-4.55
X6.95Y-3.95
X6.95Y-4.55
X7.05Y-3.95
X7.05Y-4.55
X7.15Y-3.95
X7.15Y-4.55
X7.25Y-3.95
X7.25Y-4.55
X7.35Y-3.95
X7.35Y-4.55
X7.45Y-3.95
X7.45Y-4.55
X7.55Y-3.95
X7.55Y-4.55
X7.65Y-3.95
X7.65Y-4.55
X7.75Y-3.95
X7.75Y-4.55
X7.85Y-3.95
X7.85Y-4.55
X7.95Y-3.95
X7.95Y-4.55
X8.05Y-3.95
X8.05Y-4.05
X8.05Y-4.15
X8.05Y-4.25
X8.05Y-4.35
X8.05Y-4.45
X8.05Y-4.55
T3
X6.15Y-4.2
X6.55Y-4.2
T4
X5.6Y-4.3
X5.7969Y-4.3
T5
X5.25Y-4.15
X5.25Y-4.35
X5.25Y-4.55
X5.55Y-3.85
X5.55Y-4.85
X5.75Y-3.85
X5.75Y-4.85
X5.95Y-4.85
X6.2Y-4.85
X6.4Y-4.85
X6.6Y-4.85
X6.85Y-4.85
X7.05Y-4.85
X7.25Y-4.85
X7.5Y-4.85
X7.7Y-4.85
X7.9Y-4.85
T0
M30
