M48
; DRILL file {KiCad (5.1.9)-1} date 02/19/21 15:39:00
; FORMAT={-:-/ absolute / inch / decimal}
; #@! TF.CreationDate,2021-02-19T15:39:00-08:00
; #@! TF.GenerationSoftware,Kicad,Pcbnew,(5.1.9)-1
; #@! TF.FileFunction,Plated,1,2,PTH
FMAT,2
INCH
T1C0.0157
T2C0.0300
T3C0.0315
T4C0.0472
T5C0.0598
%
G90
G05
T1
X7.3Y-3.5
T2
X7.2Y-2.75
X7.2Y-2.85
X7.2Y-2.95
X7.2Y-3.05
X7.2Y-3.15
X7.2Y-3.25
X7.2Y-3.35
X7.2Y-3.45
X7.2Y-3.55
X7.2Y-3.65
X7.2Y-3.75
X7.2Y-3.85
X7.2Y-3.95
X7.2Y-4.05
X7.3Y-4.05
X7.4Y-4.05
X7.5Y-4.05
X7.6Y-4.05
X7.7Y-4.05
X7.8Y-2.75
X7.8Y-2.85
X7.8Y-2.95
X7.8Y-3.05
X7.8Y-3.15
X7.8Y-3.25
X7.8Y-3.35
X7.8Y-3.45
X7.8Y-3.55
X7.8Y-3.65
X7.8Y-3.75
X7.8Y-3.85
X7.8Y-3.95
X7.8Y-4.05
T3
X7.05Y-3.15
X7.05Y-3.55
T4
X6.65Y-3.4031
X6.65Y-3.6
T5
X6.1Y-3.2
X6.1Y-3.4
X6.1Y-3.65
X6.1Y-3.85
X6.1Y-4.05
X6.4Y-2.9
X6.4Y-4.35
X6.6Y-2.9
X6.6Y-4.35
X6.8Y-2.9
X6.8Y-4.35
X7.05Y-4.35
X7.25Y-4.35
X7.45Y-4.35
X7.7Y-4.35
X7.9Y-4.35
X8.1Y-4.35
T0
M30
